<?xml version="1.0" standalone="no"?>
<!DOCTYPE svg PUBLIC "-//W3C//DTD SVG 20010904//EN"
 "http://www.w3.org/TR/2001/REC-SVG-20010904/DTD/svg10.dtd">
<svg version="1.0" xmlns="http://www.w3.org/2000/svg"
 width="256.000000pt" height="256.000000pt" viewBox="0 0 256.000000 256.000000"
 preserveAspectRatio="xMidYMid meet">
<metadata>
Created by potrace 1.11, written by Peter Selinger 2001-2013
</metadata>
<g transform="translate(0.000000,256.000000) scale(0.100000,-0.100000)"
fill="#000000" stroke="none">
<path d="M1447 2419 c7 -7 15 -10 18 -7 3 3 -2 9 -12 12 -14 6 -15 5 -6 -5z"/>
<path d="M1241 2393 c6 -7 17 -13 23 -12 7 0 6 2 -2 6 -6 2 -10 8 -8 12 3 4
-1 8 -9 8 -11 0 -12 -4 -4 -14z"/>
<path d="M1275 2400 c3 -5 8 -10 11 -10 2 0 4 5 4 10 0 6 -5 10 -11 10 -5 0
-7 -4 -4 -10z"/>
<path d="M1303 2404 c4 -4 2 -13 -5 -21 -6 -7 -9 -15 -6 -18 2 -2 11 4 20 15
15 17 15 19 0 25 -9 3 -13 3 -9 -1z"/>
<path d="M1357 2396 c-17 -13 -17 -14 0 -20 10 -4 14 -4 10 0 -4 4 -2 13 4 21
14 17 9 16 -14 -1z"/>
<path d="M973 2385 c0 -8 4 -12 9 -9 5 3 6 10 3 15 -9 13 -12 11 -12 -6z"/>
<path d="M1115 2390 c-3 -5 -1 -10 4 -10 6 0 11 5 11 10 0 6 -2 10 -4 10 -3 0
-8 -4 -11 -10z"/>
<path d="M1200 2383 c8 -12 17 -20 21 -17 4 2 11 -1 15 -7 4 -7 3 -9 -4 -5 -6
3 -13 2 -17 -4 -3 -5 -12 -10 -18 -10 -9 0 -8 3 1 8 9 7 7 13 -9 28 -13 10
-19 13 -14 5 6 -11 4 -13 -7 -8 -9 3 -24 -1 -35 -9 -13 -10 -14 -14 -3 -12 8
2 18 8 22 13 5 6 8 5 8 -4 0 -11 3 -11 18 0 15 12 16 12 5 -2 -7 -9 -9 -20 -5
-25 4 -4 0 -3 -10 4 -13 10 -17 10 -21 0 -4 -8 -6 -9 -6 -1 -1 6 -10 9 -21 6
-11 -3 -17 -10 -13 -17 4 -8 2 -7 -7 1 -13 12 -40 7 -51 -10 -4 -5 -9 -5 -13
2 -4 6 -2 11 3 11 6 0 11 5 11 11 0 5 -4 8 -9 5 -5 -4 -12 0 -15 6 -4 9 -5 8
-5 -2 2 -24 -13 -60 -21 -55 -5 3 -11 1 -15 -5 -4 -6 -11 -7 -17 -4 -8 5 -9 1
-5 -12 7 -18 6 -18 -8 1 -9 11 -13 25 -11 32 9 21 -1 15 -20 -14 -12 -20 -13
-24 -2 -16 12 10 15 10 15 -2 0 -7 -3 -13 -6 -13 -15 3 -40 -15 -34 -25 3 -6
1 -7 -6 -3 -6 4 -9 11 -6 15 2 5 -5 17 -18 27 -12 10 -16 12 -9 4 15 -18 16
-57 0 -66 -8 -5 -9 -2 -5 9 3 10 2 17 -3 17 -6 0 -10 5 -10 11 0 5 6 7 13 3 6
-4 8 -3 4 1 -4 5 -14 10 -22 11 -11 2 -12 -2 -5 -16 16 -30 12 -35 -12 -14
-12 10 -18 14 -15 7 4 -6 4 -13 0 -16 -5 -2 -2 -2 5 -1 6 2 12 -4 12 -12 0 -8
4 -13 9 -9 5 3 12 2 15 -3 2 -4 -4 -9 -15 -9 -10 -1 -19 2 -19 8 0 16 -24 9
-54 -17 -23 -20 -26 -28 -16 -37 10 -9 11 -9 6 0 -3 6 -2 14 3 17 11 7 8 -20
-3 -31 -4 -4 -14 0 -21 11 -14 18 -14 18 -15 0 -1 -45 -5 -62 -12 -58 -4 3 -8
-2 -8 -10 0 -21 -17 -29 -24 -10 -3 8 -2 13 3 10 5 -3 12 1 15 9 4 12 2 13
-13 5 -11 -5 -21 -15 -24 -22 -2 -7 -8 -10 -12 -5 -5 4 -3 13 3 19 15 15 15
28 0 28 -6 0 -8 -3 -5 -7 4 -3 2 -12 -4 -19 -13 -16 -2 -37 17 -30 10 4 13 -3
10 -27 -2 -18 -6 -31 -10 -29 -12 5 -44 -41 -39 -55 3 -7 0 -13 -7 -13 -6 0
-9 -4 -6 -9 3 -5 -1 -11 -9 -14 -8 -4 -12 -15 -10 -27 2 -11 0 -18 -5 -15 -5
3 -11 1 -15 -5 -3 -5 -1 -10 4 -10 6 0 11 -5 11 -11 0 -8 -5 -8 -15 1 -9 8
-15 9 -15 2 0 -6 5 -14 10 -17 6 -4 8 -11 4 -16 -3 -5 -10 -7 -15 -4 -5 4 -9
1 -9 -5 0 -6 -5 -8 -11 -4 -8 4 -7 9 2 15 8 5 10 9 6 9 -4 0 -2 10 5 23 7 12
11 26 10 30 -1 5 3 5 10 1 7 -4 10 -4 6 1 -4 4 -3 14 2 20 8 9 6 14 -4 18 -9
4 -13 1 -10 -7 3 -7 -4 -20 -15 -30 -11 -10 -17 -25 -14 -34 4 -9 2 -13 -4 -9
-6 4 -10 -1 -9 -11 1 -12 -5 -16 -19 -14 l-20 4 20 -17 c20 -16 20 -16 -3 -12
-12 3 -20 1 -16 -4 3 -5 12 -9 20 -9 8 0 13 -4 9 -9 -3 -5 0 -13 6 -17 8 -5 9
-3 4 6 -5 8 -4 11 3 6 7 -4 10 0 7 12 -2 12 3 18 18 19 20 2 21 1 5 -11 -14
-10 -15 -15 -5 -25 9 -10 9 -12 -2 -9 -7 2 -15 -7 -17 -20 -3 -16 0 -21 8 -16
7 4 8 3 4 -5 -4 -6 -12 -9 -17 -6 -5 4 -9 -1 -9 -10 0 -10 5 -13 13 -9 6 4 3
-2 -7 -15 -15 -16 -17 -24 -8 -33 7 -7 8 -17 1 -30 -7 -13 -6 -18 3 -18 7 0 5
-5 -5 -11 -18 -10 -18 -11 0 -32 10 -11 13 -17 6 -14 -6 4 -13 1 -16 -5 -2 -7
-8 -9 -13 -5 -5 4 -2 12 5 16 9 6 10 11 2 15 -6 4 -11 2 -11 -5 0 -7 -3 -9 -6
-6 -4 4 -1 13 5 21 15 18 2 26 -24 15 -14 -5 -15 -8 -5 -8 9 -1 16 -9 16 -18
1 -10 3 -24 5 -32 2 -7 -2 -16 -10 -19 -8 -3 -11 0 -7 7 5 7 1 9 -10 4 -15 -5
-15 -7 2 -17 17 -10 20 -23 15 -63 0 -7 -7 -13 -15 -13 -8 0 -17 -7 -20 -16
-5 -13 -4 -14 7 -6 8 7 16 9 20 6 3 -3 8 4 12 15 3 12 11 19 16 15 5 -3 6 -11
3 -17 -4 -7 -3 -8 1 -4 12 10 15 38 4 31 -5 -3 -9 0 -9 5 0 6 5 11 11 11 5 0
7 5 3 11 -4 8 -9 7 -16 -2 -8 -11 -9 -11 -5 1 2 8 10 14 16 13 6 -2 11 2 11 7
0 6 -6 10 -12 10 -7 0 -5 5 5 11 25 14 31 6 17 -22 -11 -20 -10 -21 6 -15 10
4 15 4 11 0 -4 -4 -1 -14 5 -23 10 -13 10 -14 -2 -3 -19 17 -35 15 -21 -2 8
-10 9 -16 1 -21 -5 -3 -8 -20 -5 -37 5 -28 4 -30 -10 -18 -13 11 -13 15 -3 21
10 7 9 9 -3 9 -26 0 -28 -10 -5 -34 22 -23 50 -17 39 10 -3 8 -1 14 5 14 12 0
11 -18 -2 -39 -7 -10 -3 -12 15 -6 23 7 23 7 4 -8 -15 -11 -22 -12 -27 -4 -4
7 -8 8 -8 3 0 -5 -11 1 -25 14 -14 13 -25 19 -25 13 0 -6 6 -13 14 -16 9 -4
12 -17 10 -36 -2 -17 0 -31 4 -31 4 0 13 -9 20 -21 12 -19 11 -20 -10 -14
l-23 6 23 -13 c12 -8 30 -25 39 -38 15 -21 15 -23 1 -17 -9 3 -24 0 -33 -7
-16 -11 -16 -13 -1 -13 9 0 16 4 16 9 0 5 9 4 20 -2 11 -6 20 -8 20 -4 0 4 9
-1 20 -11 11 -10 20 -13 20 -8 0 15 -27 36 -38 29 -5 -3 -9 7 -8 22 1 15 -4
26 -10 25 -6 -1 -11 8 -10 20 0 12 -4 21 -11 20 -14 -3 -25 24 -13 32 6 4 10
1 10 -5 0 -6 5 -8 12 -4 6 4 8 3 4 -4 -3 -6 -2 -13 3 -16 5 -4 12 3 16 14 7
20 25 28 25 10 0 -5 -3 -10 -8 -10 -4 0 -13 -9 -20 -20 -11 -19 -10 -20 10
-17 13 2 17 2 10 0 -6 -3 -12 -9 -12 -14 0 -6 5 -7 11 -3 8 4 8 0 0 -15 -7
-12 -8 -21 -2 -21 5 0 13 9 16 21 4 11 9 18 12 16 2 -3 0 -14 -6 -25 -8 -15
-6 -23 9 -37 21 -19 28 -41 10 -30 -5 3 -10 2 -10 -3 0 -8 28 -25 60 -35 9 -3
6 -6 -8 -6 -13 -1 -20 -5 -17 -11 4 -6 16 -8 27 -4 14 4 18 2 14 -5 -4 -6 -14
-11 -22 -11 -8 0 -12 -5 -9 -11 5 -7 15 -5 30 5 21 14 23 14 20 -2 -1 -9 3
-27 11 -39 8 -12 11 -30 8 -40 -5 -17 -5 -17 9 0 14 17 15 17 21 0 4 -10 4
-14 0 -10 -4 4 -13 2 -21 -4 -7 -6 -13 -8 -13 -4 0 5 -9 -2 -19 -14 -11 -12
-28 -23 -39 -24 -12 0 -18 -5 -15 -10 7 -11 -17 -38 -28 -31 -5 3 -8 2 -7 -3
3 -12 -12 -53 -21 -53 -4 0 -15 -29 -25 -64 -16 -56 -21 -63 -33 -50 -22 21
-51 17 -78 -12 -33 -35 -31 -70 5 -127 27 -43 32 -47 51 -36 15 8 19 8 15 0
-4 -6 -1 -11 7 -11 24 0 38 -24 24 -40 -10 -12 -9 -12 4 -2 9 6 20 8 25 4 4
-4 2 1 -5 11 -9 12 -10 17 -2 17 6 0 14 -7 18 -16 4 -11 8 -12 13 -4 8 14 30
5 30 -11 0 -6 -5 -7 -12 -3 -7 5 -8 3 -3 -6 7 -11 10 -10 19 1 13 16 56 21 56
6 0 -6 3 -7 6 -4 4 4 1 14 -7 23 -11 14 -10 15 7 12 10 -1 24 -10 31 -18 6 -8
15 -11 20 -7 4 5 -1 15 -11 23 -25 18 -9 18 23 0 15 -8 20 -16 12 -20 -6 -4
-11 -13 -11 -19 0 -7 5 -5 10 4 11 19 48 18 61 -2 6 -10 9 -10 9 -1 0 6 5 12
11 12 5 0 7 -4 4 -10 -3 -5 -1 -18 4 -27 6 -10 11 -13 11 -6 0 6 10 9 23 7 20
-4 20 -4 2 5 -11 4 -24 6 -28 4 -5 -3 -8 1 -6 8 3 26 -1 40 -10 34 -5 -3 -12
-1 -16 5 -4 6 -11 7 -17 4 -6 -4 -8 -3 -5 2 3 6 -3 16 -15 23 -15 9 -18 10
-13 0 6 -8 4 -10 -5 -4 -9 5 -11 4 -6 -3 4 -7 2 -12 -3 -12 -6 0 -11 5 -11 12
0 6 -3 8 -6 5 -4 -3 -16 -2 -27 4 -10 6 -17 7 -14 2 3 -5 -4 -10 -15 -10 -20
-2 -20 -1 -2 13 18 14 18 14 -1 8 -16 -4 -15 -2 4 9 l23 14 -27 21 c-21 17
-25 25 -16 35 6 8 7 17 3 21 -4 4 0 6 8 4 8 -1 14 4 15 12 0 15 16 17 70 6 27
-5 28 -5 13 7 -10 8 -14 18 -10 23 4 4 -1 2 -11 -5 -15 -12 -20 -12 -30 -1 -8
8 -8 11 -1 7 7 -4 17 0 24 8 10 13 14 12 28 -2 10 -9 15 -18 12 -19 -3 -2 3
-9 12 -16 12 -9 15 -17 8 -28 -8 -12 -11 -12 -27 1 -10 8 -25 15 -33 14 -8 -1
-23 2 -32 7 -14 7 -16 5 -12 -7 4 -9 9 -13 12 -11 3 3 12 0 20 -7 13 -10 14
-9 7 2 -5 10 2 8 23 -4 29 -17 34 -35 11 -35 -6 0 -8 4 -4 9 13 22 -19 22 -35
1 -11 -14 -22 -20 -30 -15 -8 5 -11 3 -8 -6 3 -8 11 -13 17 -11 7 1 9 -2 5 -9
-4 -7 -1 -10 7 -7 8 3 15 10 15 16 1 7 2 19 3 27 0 8 5 15 9 15 5 0 9 -7 9
-15 0 -8 -3 -15 -7 -15 -4 0 -7 -7 -7 -15 0 -8 7 -15 14 -15 8 0 12 4 8 9 -6
10 33 36 42 28 2 -3 -4 -8 -14 -11 -24 -8 -28 -44 -5 -42 9 0 16 -5 14 -12 -1
-8 3 -12 10 -9 7 2 12 11 10 21 -2 9 1 16 7 16 10 0 9 -25 -2 -36 -18 -18 -4
-25 15 -8 21 17 21 17 8 1 -12 -17 -12 -18 6 -15 10 1 25 11 32 21 7 9 17 17
23 17 5 0 0 -9 -11 -20 -22 -22 -28 -49 -7 -33 15 12 48 13 41 1 -5 -7 10 -12
29 -9 5 1 5 -4 1 -10 -5 -9 -2 -10 9 -6 9 3 22 1 29 -6 7 -7 19 -12 26 -13 27
-2 32 -4 32 -15 0 -5 -5 -7 -12 -3 -7 5 -8 3 -4 -5 5 -7 0 -22 -11 -34 l-18
-22 24 20 24 20 -7 -20 c-13 -35 -12 -39 14 -42 23 -2 23 -2 3 5 -17 5 -20 11
-13 22 9 13 11 13 21 0 8 -12 9 -9 4 10 -6 20 -5 23 6 13 18 -18 20 -75 2 -69
-8 4 -11 1 -8 -5 4 -6 14 -8 22 -5 9 4 13 1 10 -6 -2 -7 -10 -12 -16 -10 -6 1
-11 -2 -11 -8 0 -5 5 -10 11 -10 5 0 7 -5 4 -10 -4 -6 -11 -8 -16 -5 -5 3 -6
-1 -2 -10 3 -9 9 -12 12 -7 3 5 14 8 23 6 10 -1 21 3 25 8 4 7 1 8 -7 3 -9 -6
-11 -4 -5 5 5 8 4 11 -2 7 -5 -3 -10 0 -10 8 0 8 5 15 10 15 5 0 4 7 -3 15
-10 12 -10 15 1 15 10 1 8 4 -3 11 -10 5 -18 15 -18 20 0 6 5 7 10 4 6 -3 10
-3 11 2 0 4 2 16 4 26 2 11 -1 15 -8 10 -8 -5 -8 -2 0 9 7 8 9 18 5 23 -4 4 3
2 16 -4 26 -14 28 -24 7 -45 -18 -17 -20 -30 -3 -20 7 5 8 3 2 -7 -12 -20 -14
-72 -2 -86 6 -7 7 -13 2 -13 -5 0 -2 -5 6 -10 11 -7 11 -10 2 -10 -7 0 -10 -5
-7 -10 4 -6 11 -8 16 -5 5 4 12 0 15 -9 6 -15 86 -31 139 -27 17 1 40 2 53 3
12 0 22 4 22 10 0 5 -5 6 -12 2 -7 -4 -8 -3 -4 5 6 9 11 9 24 -1 13 -11 14
-11 7 1 -6 11 -4 13 8 8 10 -3 17 -2 17 4 0 6 4 8 9 5 11 -7 36 22 27 31 -3 3
-14 -1 -24 -10 -10 -10 -23 -13 -31 -8 -10 6 -9 10 5 15 9 3 14 9 11 13 -4 3
1 19 10 34 13 22 20 26 30 17 7 -6 16 -8 20 -4 3 3 1 6 -6 6 -7 0 -10 4 -7 8
8 13 -28 11 -37 -2 -6 -7 -7 -4 -3 6 3 10 1 20 -5 23 -5 4 -8 14 -7 23 2 9 -2
16 -9 15 -6 -1 -10 5 -8 15 2 9 4 20 4 25 2 15 20 6 26 -13 4 -11 11 -18 16
-14 5 3 6 11 3 17 -4 7 -4 9 1 5 4 -4 14 -3 22 3 9 8 17 8 26 0 21 -17 29 -1
9 18 -10 9 -13 12 -6 8 7 -5 14 -2 17 5 4 8 6 7 6 -4 1 -10 4 -18 9 -18 14 1
42 27 35 33 -3 4 -1 7 6 7 7 0 11 -7 8 -15 -4 -8 -2 -17 3 -20 10 -6 15 9 10
30 -8 39 -9 47 -2 41 4 -4 8 -12 8 -17 1 -5 2 -15 3 -21 1 -8 10 -3 21 11 11
13 20 18 20 13 0 -6 -5 -14 -10 -17 -5 -3 -10 -12 -10 -18 0 -7 11 0 24 14 20
24 24 25 35 10 10 -14 11 -13 6 6 -3 12 -1 24 4 28 7 4 8 0 4 -10 -5 -15 -3
-15 15 -4 11 7 19 15 17 19 -1 3 4 12 13 20 14 13 15 12 8 -5 -5 -11 -9 -25
-9 -32 0 -7 -4 -10 -9 -7 -4 3 -5 -1 -2 -9 3 -8 1 -18 -5 -22 -6 -3 -11 -14
-11 -23 0 -10 7 -3 16 16 9 17 21 32 26 32 5 0 6 -4 3 -10 -3 -5 -2 -10 2 -10
5 0 14 9 21 21 7 12 16 18 19 15 3 -3 0 -13 -8 -23 -12 -14 -12 -16 0 -8 11 6
13 4 8 -11 -6 -14 -2 -13 14 6 14 17 22 21 26 13 2 -7 9 -13 15 -13 6 0 5 6
-2 15 -18 22 -5 31 15 11 9 -9 21 -14 26 -11 5 4 9 1 9 -4 0 -6 5 -11 12 -11
9 0 9 3 0 12 -24 24 -11 29 21 7 17 -13 26 -16 20 -8 -7 9 -10 19 -6 23 4 4 0
4 -9 1 -9 -4 -19 -2 -23 4 -4 8 -12 8 -27 0 -16 -9 -19 -8 -13 2 5 8 4 10 -3
5 -7 -4 -12 -3 -12 3 0 5 -9 8 -20 6 -13 -3 -18 0 -14 7 4 7 2 8 -5 4 -9 -6
-9 -11 0 -22 10 -12 9 -13 -5 -8 -9 3 -16 11 -16 18 0 7 -4 6 -9 -2 -4 -8 -12
-14 -17 -15 -5 -1 -8 -6 -6 -10 1 -5 -2 -6 -7 -2 -15 8 -3 32 19 38 20 5 21
30 1 50 -10 10 -11 6 -7 -15 2 -16 0 -28 -5 -28 -9 0 -13 16 -9 35 1 6 3 18 4
28 0 10 8 22 16 27 8 5 11 10 6 10 -5 0 -2 8 5 17 12 15 12 16 -6 9 -17 -6
-17 -4 4 18 22 23 26 24 50 11 34 -18 63 -53 51 -60 -6 -4 -6 -14 1 -26 6 -12
8 -23 6 -26 -3 -2 -8 4 -11 14 -7 22 -45 29 -42 8 3 -19 16 -32 16 -16 0 7 5
9 11 5 8 -5 6 -10 -7 -18 -11 -6 -21 -20 -22 -30 -3 -17 -2 -18 12 -7 13 11
20 11 40 -2 21 -14 25 -14 30 -2 3 8 10 15 16 15 6 0 4 -7 -5 -16 -9 -9 -13
-19 -10 -22 3 -4 10 0 15 8 6 8 10 10 10 4 0 -6 8 -20 18 -32 17 -19 19 -19
29 -3 9 14 8 18 -3 18 -7 0 -10 -5 -7 -10 3 -6 1 -7 -6 -3 -6 4 -9 12 -5 17 3
5 9 7 13 5 4 -3 13 -1 21 4 8 5 22 2 37 -7 21 -14 23 -14 17 1 -5 12 -2 15 12
9 12 -4 15 -3 10 5 -5 8 -2 10 8 6 10 -4 16 -1 16 7 0 7 3 9 6 6 9 -8 54 43
55 63 5 60 -27 100 -74 94 -17 -2 -34 -9 -39 -16 -5 -9 -8 -6 -8 9 0 32 -34
117 -59 149 -11 14 -18 31 -14 37 3 5 1 7 -4 4 -6 -4 -22 3 -35 16 -14 12 -34
27 -44 33 -12 7 -19 21 -18 38 1 16 -3 25 -10 23 -6 -2 -10 -15 -8 -28 2 -22
2 -23 -9 -5 -10 17 -7 23 22 48 22 19 30 31 22 35 -17 6 -16 20 1 20 10 0 13
-9 10 -30 -3 -24 -1 -27 11 -17 8 7 12 16 9 21 -3 5 5 18 18 29 13 11 18 19
12 20 -5 0 -15 -5 -22 -12 -9 -9 -12 -9 -12 0 0 7 5 12 11 12 5 0 8 4 5 8 -2
4 0 14 6 22 8 12 9 11 4 -4 -4 -13 -2 -17 8 -13 10 4 13 -2 11 -24 -1 -16 1
-29 6 -29 4 0 1 -13 -9 -29 -15 -26 -17 -28 -30 -13 -11 13 -10 11 1 -8 8 -14
22 -26 31 -26 12 -2 12 -1 2 3 -12 3 -13 9 -4 29 6 13 15 24 20 24 5 0 6 -5 2
-12 -4 -7 -3 -8 4 -4 9 5 9 13 2 26 -14 26 -13 35 3 22 8 -7 18 -8 27 -1 12 8
12 9 -4 7 -10 -2 -22 4 -26 12 -4 8 -12 25 -19 38 -9 17 -9 27 -2 36 6 7 8 16
4 20 -4 4 1 4 12 0 16 -6 18 -5 8 7 -16 16 -17 29 -3 29 5 0 9 -5 7 -11 -1 -6
4 -14 11 -16 8 -3 10 1 6 11 -3 9 -1 16 6 16 6 0 8 -6 4 -12 -5 -10 -4 -10 7
0 11 10 16 9 30 -9 12 -17 18 -19 24 -9 5 8 4 11 -2 7 -6 -4 -13 0 -16 7 -3 8
-3 17 1 19 4 2 2 3 -4 1 -6 -1 -17 3 -24 9 -10 9 -11 9 -5 -3 6 -12 5 -12 -5
-3 -7 6 -20 9 -29 6 -13 -4 -14 -3 -1 5 8 6 18 8 24 5 5 -4 7 1 3 11 -4 10 -7
20 -7 22 0 3 -5 2 -12 -2 -7 -4 -8 -3 -4 4 4 6 13 9 21 6 10 -4 13 2 11 21 -2
17 3 29 16 36 18 9 18 8 8 -10 -6 -12 -7 -21 -3 -21 4 0 2 -4 -6 -9 -9 -6 -10
-11 -2 -15 6 -4 11 -2 11 3 0 6 3 10 8 9 4 -2 18 5 30 14 24 16 24 16 3 23
-19 6 -25 17 -22 38 2 12 -9 8 -31 -13 -12 -11 -24 -17 -27 -14 -3 4 0 9 6 11
10 3 10 10 2 26 -9 20 -9 21 4 4 9 -11 18 -14 21 -8 4 5 2 12 -4 16 -5 3 -10
11 -10 18 0 6 6 3 13 -7 12 -16 17 -17 33 -7 12 8 13 11 3 8 -9 -3 -23 3 -32
14 -20 23 -19 23 29 3 22 -9 36 -13 32 -8 -4 4 -3 13 3 21 10 11 15 11 28 1
14 -12 14 -11 2 4 -7 10 -17 15 -22 12 -5 -3 -9 0 -9 5 0 6 -5 11 -11 11 -8 0
-8 -4 0 -14 9 -11 8 -15 -5 -20 -16 -6 -49 12 -39 22 2 3 -3 10 -12 17 -13 9
-13 14 -3 20 9 5 11 4 6 -3 -4 -7 -3 -12 3 -12 15 0 23 18 11 25 -6 4 -8 10
-5 15 3 4 -2 11 -11 14 -15 6 -15 8 1 26 17 19 14 25 -10 20 -5 -1 -4 4 2 11
11 10 16 9 28 -7 8 -10 15 -15 15 -11 0 5 15 -1 33 -13 l32 -22 -30 28 c-16
15 -29 33 -27 41 2 7 -2 13 -8 13 -6 0 -8 -5 -5 -11 4 -6 -2 -5 -14 2 -22 14
-9 32 16 22 7 -3 13 0 13 7 0 6 5 8 13 4 8 -6 8 -3 -1 9 -15 18 -7 41 11 30 9
-5 9 -3 1 8 -6 8 -10 22 -9 31 2 11 -2 15 -13 11 -11 -5 -13 -3 -7 7 5 9 4 11
-3 6 -15 -9 -15 -1 -2 25 6 11 7 19 3 18 -27 -5 -33 2 -23 22 7 11 9 23 6 26
-3 3 -10 -5 -15 -18 -5 -13 -11 -21 -12 -16 -5 21 -4 33 6 40 6 5 4 7 -5 4 -8
-2 -15 -13 -15 -25 0 -11 -4 -24 -9 -29 -5 -5 -6 -3 -2 5 4 7 2 12 -6 12 -9 0
-9 3 2 10 13 8 8 14 -11 12 -10 -1 -7 32 5 47 9 11 7 13 -11 7 -12 -4 -24 -2
-28 3 -3 6 0 8 8 5 8 -3 14 2 14 11 0 14 -10 19 -30 16 -5 -1 -6 3 -2 9 4 6
12 7 24 1 10 -6 23 -6 31 -1 12 7 11 9 -5 10 -45 1 -63 5 -59 12 3 5 19 6 37
3 l31 -6 -23 20 c-13 12 -28 21 -33 21 -5 0 -6 5 -3 10 4 6 12 7 18 4 8 -4 7
-2 -1 7 -11 12 -14 12 -22 -1 -7 -11 -5 -19 7 -27 18 -14 6 -18 -14 -5 -13 8
-13 29 0 50 5 6 5 12 0 12 -4 0 -1 5 7 10 9 6 10 10 3 10 -6 0 -15 -5 -18 -10
-4 -6 -10 -8 -15 -5 -5 3 -14 -3 -20 -12 -11 -17 -11 -17 -6 1 5 15 2 17 -14
13 -11 -3 -18 -1 -14 4 3 5 12 9 20 9 8 0 12 5 9 10 -4 6 -11 8 -16 5 -5 -4
-9 -2 -9 2 0 5 9 14 20 21 18 11 19 10 16 -17 -2 -21 0 -28 10 -24 16 6 19 23
3 23 -5 0 -7 5 -4 10 10 16 -5 33 -18 22 -7 -6 -24 -10 -39 -10 -26 0 -27 1
-8 17 14 11 17 20 11 30 -8 12 -13 12 -24 3 -17 -14 -43 -7 -51 14 -3 7 0 17
7 21 7 5 19 17 27 28 14 19 14 20 -6 3 -23 -20 -39 -24 -29 -8 5 9 1 11 -20
10 -3 0 -15 9 -27 20 -12 11 -26 20 -30 20 -5 0 -7 4 -4 8 2 4 -4 8 -14 9 -18
2 -18 1 -2 -16 9 -10 20 -16 23 -15 4 2 14 -5 24 -16 10 -11 21 -17 25 -15 13
8 18 -18 8 -40 -8 -18 -8 -18 -4 3 5 25 -3 28 -23 10 -9 -8 -12 -9 -7 -1 3 6
-8 23 -25 37 -17 14 -27 26 -22 26 24 1 -50 30 -83 32 -12 1 -12 37 0 57 4 6
12 8 18 5 7 -4 8 -2 4 4 -5 9 -12 9 -26 0 -10 -7 -16 -16 -14 -20 3 -4 1 -8
-5 -8 -6 0 -8 -8 -4 -17 5 -15 3 -14 -10 2 -9 11 -16 25 -17 30 0 6 5 3 10 -5
7 -12 9 -10 7 8 -2 27 -14 29 -22 2 -3 -11 -10 -20 -15 -20 -5 0 -8 9 -7 20 1
11 5 20 9 20 4 0 8 5 8 11 0 8 -4 8 -15 -1 -8 -6 -20 -8 -26 -4 -8 4 -9 3 -5
-4 13 -22 -13 -12 -28 10 -9 12 -16 17 -16 10 0 -9 -7 -8 -25 4 -14 9 -28 14
-32 10 -3 -3 -1 -6 6 -6 7 0 10 -4 6 -9 -3 -6 4 -15 16 -21 12 -7 19 -8 16 -3
-4 5 1 10 9 10 10 0 11 -4 4 -11 -13 -13 -40 -17 -40 -5 0 6 -5 7 -10 4 -6 -4
-10 -3 -9 2 4 22 -2 25 -15 7 -14 -18 -15 -18 -21 -1 -4 9 -11 17 -17 17 -5 0
-7 -4 -4 -8 2 -4 -4 -8 -14 -8 -10 0 -17 3 -14 7 2 4 -3 9 -10 12 -17 7 -39
-16 -28 -29 4 -5 -2 -1 -14 9 -11 9 -30 17 -42 17 -12 0 -22 5 -22 12 0 6 -3
8 -7 5 -3 -4 -13 -1 -21 6 -13 11 -14 9 -2 -10z m309 -59 c-6 -8 -15 -12 -18
-8 -3 4 0 9 7 11 6 3 9 10 6 15 -4 7 -2 8 5 4 9 -6 9 -11 0 -22z m43 9 c-6 -2
-10 -9 -7 -13 3 -5 1 -11 -4 -14 -7 -5 -8 11 -2 32 1 1 7 2 14 1 9 0 9 -2 -1
-6z m-348 -71 c3 -5 -1 -9 -9 -9 -8 0 -12 4 -9 9 3 4 7 8 9 8 2 0 6 -4 9 -8z
m83 -9 c-4 -3 1 -12 11 -20 16 -12 16 -13 -2 -6 -13 4 -17 3 -12 -5 3 -6 2
-13 -2 -16 -5 -3 -8 7 -6 22 3 33 2 32 11 32 3 0 3 -3 0 -7z m161 -18 c-3 -3
-9 2 -12 12 -6 14 -5 15 5 6 7 -7 10 -15 7 -18z m-82 -1 c-1 -8 -6 -17 -11
-21 -4 -5 -5 -2 0 6 6 11 4 13 -8 8 -10 -4 -14 -2 -11 7 6 17 32 16 30 0z
m148 8 c3 -5 -1 -9 -9 -9 -8 0 -12 4 -9 9 3 4 7 8 9 8 2 0 6 -4 9 -8z m-427
-34 c2 -17 0 -19 -7 -8 -5 8 -6 18 -4 22 8 12 10 10 11 -14z m81 5 c-6 -7 -12
-13 -13 -13 -2 0 -5 6 -8 13 -3 7 3 13 14 13 13 0 15 -3 7 -13z m86 9 c-6 -4
-10 -19 -9 -34 1 -15 -1 -25 -5 -23 -4 2 -6 17 -4 32 3 35 2 33 17 33 8 0 8
-3 1 -8z m286 -16 c-4 -4 -16 -4 -26 2 -16 9 -14 10 8 9 15 -1 23 -6 18 -11z
m-479 -13 c13 -16 12 -17 -3 -5 -9 8 -23 10 -29 6 -8 -4 -9 -3 -5 4 10 17 21
15 37 -5z m80 0 c13 -16 12 -17 -3 -4 -10 7 -18 15 -18 17 0 8 8 3 21 -13z
m200 0 c13 -16 12 -17 -3 -4 -15 11 -21 11 -35 0 -16 -13 -17 -12 -4 4 7 9 17
17 21 17 4 0 14 -8 21 -17z m69 13 c0 -3 -4 -8 -10 -11 -5 -3 -10 -1 -10 4 0
6 5 11 10 11 6 0 10 -2 10 -4z m80 -11 c0 -1 -9 -5 -19 -8 -13 -3 -18 -1 -14
9 4 10 33 10 33 -1z m-694 -4 c-4 -5 0 -12 6 -14 8 -3 6 -6 -5 -6 -10 -1 -15
-5 -12 -11 3 -5 2 -10 -3 -10 -18 0 -21 29 -4 39 21 13 25 13 18 2z m420 -13
c3 -4 -1 -5 -10 -4 -8 1 -18 5 -22 8 -3 4 1 5 10 4 8 -1 18 -5 22 -8z m173
-11 c8 -10 7 -14 -2 -14 -8 0 -14 6 -14 14 0 7 1 13 2 13 2 0 8 -6 14 -13z
m183 6 c-6 -2 -10 -8 -8 -12 3 -4 -4 -8 -15 -8 -10 -1 -19 3 -19 8 0 6 4 8 9
4 5 -3 12 -1 16 5 3 5 12 10 18 9 9 0 8 -2 -1 -6z m51 -6 c4 3 7 1 7 -5 0 -17
-16 -15 -31 6 -12 15 -12 16 2 5 9 -7 19 -10 22 -6z m-456 -15 c0 -10 -6 -19
-13 -19 -9 0 -9 5 -1 19 7 10 13 18 14 18 1 0 1 -8 0 -18z m527 -8 c7 -19 2
-18 -19 6 -16 17 -16 20 -3 15 9 -4 19 -13 22 -21z m-203 -1 c13 -16 12 -17
-3 -5 -9 8 -23 10 -29 6 -8 -4 -9 -3 -5 4 10 17 21 15 37 -5z m-471 3 c0 -2
-8 -10 -17 -17 -16 -13 -17 -12 -4 4 13 16 21 21 21 13z m65 -16 c10 -11 16
-20 13 -20 -3 0 -13 9 -23 20 -10 11 -16 20 -13 20 3 0 13 -9 23 -20z m199 12
c3 -5 -1 -9 -9 -9 -8 0 -12 4 -9 9 3 4 7 8 9 8 2 0 6 -4 9 -8z m317 -14 c6
-13 8 -20 4 -16 -5 4 -13 3 -20 -2 -8 -7 -12 -5 -12 5 0 8 5 11 10 8 6 -4 8 0
4 10 -9 25 0 21 14 -5z m65 10 c5 -7 3 -8 -6 -3 -10 6 -12 4 -6 -10 5 -15 4
-16 -9 -5 -13 11 -13 15 -3 21 17 11 16 11 24 -3z m-455 -15 c13 -16 12 -17
-3 -4 -17 13 -22 21 -14 21 2 0 10 -8 17 -17z m684 -4 c-10 -15 -25 -10 -19 6
4 8 10 12 15 9 5 -3 7 -10 4 -15z m-515 5 c0 -8 -19 -13 -24 -6 -3 5 1 9 9 9
8 0 15 -2 15 -3z m25 -4 c3 -5 1 -10 -4 -10 -6 0 -11 5 -11 10 0 6 2 10 4 10
3 0 8 -4 11 -10z m40 -8 c-3 -3 -11 0 -18 7 -9 10 -8 11 6 5 10 -3 15 -9 12
-12z m270 8 c-3 -5 -12 -10 -18 -10 -7 0 -6 4 3 10 19 12 23 12 15 0z m-983
-7 c-6 -2 -9 -10 -6 -15 4 -7 2 -8 -5 -4 -13 9 -5 26 12 25 9 0 8 -2 -1 -6z
m159 -10 c13 -16 12 -17 -3 -4 -17 13 -22 21 -14 21 2 0 10 -8 17 -17z m639
-5 c0 -4 -4 -8 -9 -8 -6 0 -12 4 -15 8 -3 5 1 9 9 9 8 0 15 -4 15 -9z m-90
-13 c-7 -8 -17 -15 -23 -15 -6 0 -2 7 9 15 25 19 30 19 14 0z m43 0 c-3 -9 -8
-14 -10 -11 -3 3 -2 9 2 15 9 16 15 13 8 -4z m134 -3 c-10 -10 -16 -21 -15
-23 2 -2 1 -3 -1 -1 -3 1 -6 9 -7 17 -1 8 2 13 6 10 5 -3 11 -1 15 5 3 5 9 10
12 10 3 0 -1 -8 -10 -18z m56 5 c7 3 10 4 7 0 -3 -3 -8 -5 -11 -4 -4 1 -17 -7
-30 -18 l-23 -20 20 27 c10 14 21 22 22 17 2 -5 9 -6 15 -2z m74 0 c0 -8 -6
-14 -14 -14 -17 0 -17 14 0 20 6 3 12 6 13 6 0 1 1 -5 1 -12z m-681 -12 c-1
-8 -5 -17 -8 -21 -5 -4 -4 16 1 34 3 9 9 -1 7 -13z m744 1 c0 -2 -8 -10 -17
-17 -16 -13 -17 -12 -4 4 13 16 21 21 21 13z m-235 -16 c3 -6 -1 -7 -9 -4 -18
7 -21 14 -7 14 6 0 13 -4 16 -10z m92 -13 c0 -8 -6 -14 -14 -14 -9 0 -10 4 -2
14 6 7 12 13 14 13 1 0 2 -6 2 -13z m-797 -6 c0 -6 -4 -12 -8 -15 -5 -3 -9 1
-9 9 0 8 4 15 9 15 4 0 8 -4 8 -9z m665 -1 c-3 -5 -12 -10 -18 -10 -7 0 -6 4
3 10 19 12 23 12 15 0z m245 0 c8 -5 11 -10 5 -10 -5 0 -17 5 -25 10 -8 5 -10
10 -5 10 6 0 17 -5 25 -10z m44 2 c3 -5 -1 -9 -9 -9 -8 0 -12 4 -9 9 3 4 7 8
9 8 2 0 6 -4 9 -8z m-104 -22 c-8 -5 -19 -10 -25 -10 -5 0 -3 5 5 10 8 5 20
10 25 10 6 0 3 -5 -5 -10z m252 -4 c-4 -6 -7 -14 -7 -18 0 -19 -11 -14 -11 6
0 12 6 23 13 23 6 0 9 -5 5 -11z m-1149 -11 c-3 -9 -8 -14 -10 -11 -3 3 -2 9
2 15 9 16 15 13 8 -4z m1011 -1 c3 -8 2 -13 -3 -9 -5 3 -11 0 -13 -7 -3 -7 -7
-5 -11 6 -4 10 -3 15 3 11 6 -3 10 -1 10 4 0 16 7 13 14 -5z m-224 -8 c0 -2
-8 -10 -17 -17 -16 -13 -17 -12 -4 4 13 16 21 21 21 13z m151 -23 c13 -16 12
-17 -3 -4 -10 7 -18 15 -18 17 0 8 8 3 21 -13z m-956 -2 c3 -5 2 -12 -3 -15
-5 -3 -9 1 -9 9 0 17 3 19 12 6z m1062 -13 c-3 -8 -6 -5 -6 6 -1 11 2 17 5 13
3 -3 4 -12 1 -19z m-1002 -18 c3 -5 1 -10 -4 -10 -6 0 -11 5 -11 10 0 6 2 10
4 10 3 0 8 -4 11 -10z m965 -18 c0 -5 -7 -9 -15 -9 -8 0 -12 4 -9 9 3 4 9 8
15 8 5 0 9 -4 9 -8z m-1125 -22 c3 -5 1 -10 -4 -10 -6 0 -11 5 -11 10 0 6 2
10 4 10 3 0 8 -4 11 -10z m125 6 c0 -3 -4 -8 -10 -11 -5 -3 -10 -1 -10 4 0 6
5 11 10 11 6 0 10 -2 10 -4z m835 -5 c3 -5 2 -12 -3 -15 -5 -3 -9 1 -9 9 0 17
3 19 12 6z m220 1 c-3 -3 0 -11 7 -19 6 -7 9 -15 7 -17 -2 -2 -12 6 -21 18
-13 18 -14 23 -2 23 8 0 12 -3 9 -5z m-99 -22 c0 -12 -4 -16 -9 -11 -5 5 -6
14 -3 20 10 15 12 14 12 -9z m44 16 c0 -2 -8 -10 -17 -17 -16 -13 -17 -12 -4
4 13 16 21 21 21 13z m-1003 -31 c0 -8 -4 -12 -9 -9 -5 3 -6 10 -3 15 9 13 12
11 12 -6z m1028 -4 c-9 -8 -36 -10 -30 -2 2 4 11 8 20 8 8 0 13 -3 10 -6z
m-80 -21 c-3 -5 -12 -10 -18 -10 -7 0 -6 4 3 10 19 12 23 12 15 0z m119 -2
c-4 -5 -9 -7 -12 -4 -3 3 -12 0 -21 -7 -14 -10 -14 -10 -4 4 13 16 46 23 37 7z
m-1104 -18 c0 -5 -5 -10 -11 -10 -5 0 -7 5 -4 10 3 6 8 10 11 10 2 0 4 -4 4
-10z m35 1 c3 -5 2 -12 -3 -15 -5 -3 -9 1 -9 9 0 17 3 19 12 6z m1110 0 c-9
-8 -36 -10 -30 -2 2 4 11 8 20 8 8 0 13 -3 10 -6z m-160 -21 c3 -6 -1 -7 -9
-4 -18 7 -21 14 -7 14 6 0 13 -4 16 -10z m35 -5 c-5 -7 -9 -14 -7 -16 1 -2 0
-3 -2 -1 -11 7 -7 29 5 29 9 0 11 -4 4 -12z m300 -37 c0 -5 -6 -8 -12 -8 -7 0
-1 -12 15 -25 31 -28 32 -33 10 -57 -11 -12 -12 -18 -4 -18 7 0 9 -5 5 -12 -6
-9 -9 -9 -12 1 -3 10 -6 10 -12 2 -5 -9 -10 -8 -20 4 -11 13 -10 15 6 9 18 -5
18 -4 -1 12 -18 15 -18 16 -2 10 13 -4 17 -2 14 6 -2 7 -11 12 -18 10 -11 -3
-12 -1 -1 9 16 17 16 40 -1 34 -6 -3 -18 4 -25 16 -8 12 -9 18 -3 14 6 -3 14
1 17 9 5 12 9 13 25 3 10 -6 19 -15 19 -19z m-242 -3 c-3 -3 -9 2 -12 12 -6
14 -5 15 5 6 7 -7 10 -15 7 -18z m42 21 c0 -2 -8 -10 -17 -17 -16 -13 -17 -12
-4 4 13 16 21 21 21 13z m36 -16 c0 -12 -4 -16 -9 -11 -5 5 -6 14 -3 20 10 15
12 14 12 -9z m-22 -26 c3 -8 2 -12 -4 -9 -6 3 -10 10 -10 16 0 14 7 11 14 -7z
m-1279 -23 c3 -5 2 -12 -3 -15 -5 -3 -9 1 -9 9 0 17 3 19 12 6z m99 -9 c3 -5
-1 -9 -9 -9 -8 0 -12 4 -9 9 3 4 7 8 9 8 2 0 6 -4 9 -8z m1217 -9 c13 -16 12
-17 -3 -4 -10 7 -18 15 -18 17 0 8 8 3 21 -13z m-1196 -32 c-9 -8 -36 -10 -30
-2 2 4 11 8 20 8 8 0 13 -3 10 -6z m1223 -26 c-3 -3 -9 2 -12 12 -6 14 -5 15
5 6 7 -7 10 -15 7 -18z m-1367 -28 c-10 -9 -11 -8 -5 6 3 10 9 15 12 12 3 -3
0 -11 -7 -18z m13 -25 c3 -5 -1 -9 -9 -9 -8 0 -12 4 -9 9 3 4 7 8 9 8 2 0 6
-4 9 -8z m146 2 c0 -8 -19 -13 -24 -6 -3 5 1 9 9 9 8 0 15 -2 15 -3z m-73 -33
c0 -11 -5 -18 -9 -15 -4 3 -5 11 -1 19 7 21 12 19 10 -4z m1267 -29 c2 -4 -4
-8 -14 -8 -10 0 -16 4 -14 8 3 4 9 8 14 8 5 0 11 -4 14 -8z m-1349 -21 c3 -5
2 -12 -3 -15 -5 -3 -9 1 -9 9 0 17 3 19 12 6z m1365 -81 c0 -5 -5 -10 -11 -10
-5 0 -7 5 -4 10 3 6 8 10 11 10 2 0 4 -4 4 -10z m-1450 -26 c0 -2 -7 -4 -15
-4 -8 0 -15 4 -15 10 0 5 7 7 15 4 8 -4 15 -8 15 -10z m1406 -10 c1 -9 0 -13
-4 -10 -3 4 -7 14 -8 22 -1 9 0 13 4 10 3 -4 7 -14 8 -22z m-1276 -4 c0 -5 -5
-10 -11 -10 -5 0 -7 5 -4 10 3 6 8 10 11 10 2 0 4 -4 4 -10z m1449 -76 c-14
-17 -30 -9 -23 11 3 7 12 11 20 8 11 -4 12 -9 3 -19z m-1583 3 c12 4 15 3 10
-6 -4 -6 -15 -11 -24 -9 -10 1 -22 0 -27 -4 -6 -4 -11 2 -12 13 -2 16 2 17 17
9 10 -5 26 -7 36 -3z m1512 -12 c-3 -3 -9 2 -12 12 -6 14 -5 15 5 6 7 -7 10
-15 7 -18z m-198 -49 c0 -3 -4 -8 -10 -11 -5 -3 -10 -1 -10 4 0 6 5 11 10 11
6 0 10 -2 10 -4z m180 0 c0 -2 -7 -7 -16 -10 -8 -3 -12 -2 -9 4 6 10 25 14 25
6z m-1409 -81 c5 4 9 1 9 -4 0 -6 -4 -11 -8 -11 -12 0 -32 22 -32 35 0 5 5 2
11 -8 6 -9 14 -15 20 -12z m1362 -12 c-3 -7 -6 -13 -8 -13 -2 0 -5 6 -8 13 -3
8 1 14 8 14 7 0 11 -6 8 -14z m-218 -13 c3 -5 1 -10 -4 -10 -6 0 -11 5 -11 10
0 6 2 10 4 10 3 0 8 -4 11 -10z m-1112 -27 c-7 -2 -19 -2 -25 0 -7 3 -2 5 12
5 14 0 19 -2 13 -5z m1292 -13 c-3 -5 -14 -10 -23 -9 -14 0 -13 2 3 9 27 11
27 11 20 0z m-63 -82 c-8 -8 -9 -4 -5 13 4 13 8 18 11 10 2 -7 -1 -18 -6 -23z
m-1160 -6 c-3 -10 -1 -13 6 -8 7 4 12 5 12 2 0 -15 -20 -14 -29 2 -7 14 -6 19
4 19 7 0 11 -7 7 -15z m1136 -27 c-3 -3 -9 2 -12 12 -6 14 -5 15 5 6 7 -7 10
-15 7 -18z m-1100 -20 c-3 -3 -9 2 -12 12 -6 14 -5 15 5 6 7 -7 10 -15 7 -18z
m1037 -325 c-3 -5 -12 -10 -18 -10 -7 0 -6 4 3 10 19 12 23 12 15 0z m155 -31
c0 -6 -4 -7 -10 -4 -5 3 -10 11 -10 16 0 6 5 7 10 4 6 -3 10 -11 10 -16z
m-177 -2 c3 -8 -1 -14 -8 -14 -7 0 -11 6 -8 14 3 7 6 13 8 13 2 0 5 -6 8 -13z
m-908 -7 c2 -4 -7 -6 -21 -4 -35 3 -41 12 -9 12 14 0 27 -4 30 -8z m-229 -38
c-17 -16 -18 -16 -5 5 7 12 15 20 18 17 3 -2 -3 -12 -13 -22z m44 -2 c0 -5 -4
-10 -10 -10 -5 0 -10 5 -10 10 0 6 5 10 10 10 6 0 10 -4 10 -10z m145 0 c-3
-5 -11 -10 -16 -10 -6 0 -7 5 -4 10 3 6 11 10 16 10 6 0 7 -4 4 -10z m1129 -2
c-3 -4 -9 -8 -15 -8 -5 0 -9 4 -9 8 0 5 7 9 15 9 8 0 12 -4 9 -9z m-209 -10
c5 4 5 1 1 -6 -6 -10 -11 -10 -22 -1 -8 6 -14 14 -14 16 0 3 6 0 13 -6 8 -6
18 -7 22 -3z m-1089 -53 c-12 -14 -24 -14 -43 -2 -7 5 -17 5 -23 2 -5 -3 -10
-1 -10 4 0 6 7 11 15 11 7 0 18 7 23 16 8 15 10 15 15 0 4 -10 3 -14 -2 -11
-5 3 -12 1 -16 -5 -3 -6 3 -10 15 -10 19 0 21 4 16 28 l-6 27 14 -24 c10 -18
11 -28 2 -36z m1364 41 c0 -2 -7 -6 -15 -10 -8 -3 -15 -1 -15 4 0 6 7 10 15
10 8 0 15 -2 15 -4z m-1453 -22 c-3 -3 -12 -4 -19 -1 -8 3 -5 6 6 6 11 1 17
-2 13 -5z m228 -32 c-8 -8 -25 10 -19 20 4 6 9 5 15 -3 4 -7 6 -15 4 -17z
m252 -17 c0 -8 -4 -15 -9 -15 -10 0 -11 14 -1 23 9 10 10 9 10 -8z m448 -13
c-3 -3 -11 0 -18 7 -9 10 -8 11 6 5 10 -3 15 -9 12 -12z m-410 -2 c-3 -5 -12
-10 -18 -10 -7 0 -6 4 3 10 19 12 23 12 15 0z m95 -12 c0 -4 -4 -8 -9 -8 -6 0
-12 4 -15 8 -3 5 1 9 9 9 8 0 15 -4 15 -9z m245 2 c-3 -5 -14 -10 -23 -9 -14
0 -13 2 3 9 27 11 27 11 20 0z m65 -6 c0 -2 -7 -4 -15 -4 -8 0 -15 4 -15 10 0
5 7 7 15 4 8 -4 15 -8 15 -10z m-380 2 c0 -2 -7 -7 -16 -10 -8 -3 -12 -2 -9 4
6 10 25 14 25 6z m20 -26 c0 -5 -5 -10 -12 -10 -6 0 -3 -7 8 -15 10 -8 14 -15
8 -15 -6 0 -17 6 -24 14 -6 8 -18 12 -26 9 -8 -3 -14 0 -14 5 0 6 9 9 20 7 11
-2 20 0 20 6 0 5 5 9 10 9 6 0 10 -4 10 -10z"/>
<path d="M2065 1761 c-6 -11 9 -23 19 -14 9 9 7 23 -3 23 -6 0 -12 -4 -16 -9z"/>
<path d="M2096 1711 c-4 -5 -1 -13 5 -16 5 -4 8 -14 5 -22 -3 -8 -1 -11 4 -8
10 6 9 40 -2 50 -3 4 -9 2 -12 -4z"/>
<path d="M1392 2383 c11 -3 15 -11 12 -21 -5 -15 -4 -15 5 -2 16 23 13 30 -11
29 -17 -1 -18 -3 -6 -6z"/>
<path d="M1545 2380 c-3 -6 1 -7 9 -4 18 7 21 14 7 14 -6 0 -13 -4 -16 -10z"/>
<path d="M1058 2358 c14 -18 44 -18 50 0 5 15 -14 16 -23 2 -5 -8 -12 -7 -23
2 -15 11 -15 11 -4 -4z"/>
<path d="M987 2326 c4 -19 3 -19 -7 -3 -6 9 -16 17 -23 17 -8 0 -7 -4 2 -9 12
-8 12 -12 2 -24 -10 -13 -9 -15 5 -13 16 2 44 32 44 46 0 4 -6 7 -14 7 -8 0
-12 -8 -9 -21z"/>
<path d="M899 2321 c0 -3 -3 -18 -5 -33 -3 -16 -1 -28 4 -28 5 0 8 10 7 23 -1
12 5 27 13 33 13 9 12 11 -2 11 -9 0 -16 -3 -17 -6z"/>
<path d="M1686 2322 c-3 -5 1 -9 9 -9 8 0 12 4 9 9 -3 4 -7 8 -9 8 -2 0 -6 -4
-9 -8z"/>
<path d="M1651 2306 c-8 -10 -9 -16 -2 -21 18 -10 52 -15 46 -5 -3 4 1 11 7
14 7 3 -2 3 -21 0 -30 -4 -33 -3 -21 11 7 8 10 15 7 15 -2 0 -10 -6 -16 -14z"/>
<path d="M1765 2210 c10 -11 20 -20 23 -20 3 0 -3 9 -13 20 -10 11 -20 20 -23
20 -3 0 3 -9 13 -20z"/>
<path d="M741 2204 c0 -11 3 -14 6 -6 3 7 2 16 -1 19 -3 4 -6 -2 -5 -13z"/>
<path d="M720 2191 c0 -7 -5 -9 -12 -5 -7 5 -8 3 -3 -5 5 -9 10 -10 18 -2 6 6
8 14 4 18 -4 3 -7 1 -7 -6z"/>
<path d="M1868 2173 c6 -2 18 -2 25 0 6 3 1 5 -13 5 -14 0 -19 -2 -12 -5z"/>
<path d="M1830 2166 c0 -2 6 -9 14 -15 11 -9 16 -9 22 0 4 8 3 9 -4 5 -7 -4
-12 -2 -12 3 0 6 -4 11 -10 11 -5 0 -10 -2 -10 -4z"/>
<path d="M1930 2160 c0 -5 5 -10 11 -10 5 0 7 5 4 10 -3 6 -8 10 -11 10 -2 0
-4 -4 -4 -10z"/>
<path d="M663 2115 c0 -7 6 -11 14 -8 7 3 13 6 13 8 0 2 -6 5 -13 8 -8 3 -14
-1 -14 -8z"/>
<path d="M1916 2113 c-6 -14 -5 -15 5 -6 7 7 10 15 7 18 -3 3 -9 -2 -12 -12z"/>
<path d="M1973 2095 c0 -8 4 -12 9 -9 5 3 6 10 3 15 -9 13 -12 11 -12 -6z"/>
<path d="M607 2044 c-3 -4 -2 -15 3 -25 7 -12 7 -20 0 -24 -5 -3 -10 1 -10 9
0 8 -4 17 -9 20 -5 4 -7 -3 -4 -14 3 -12 0 -20 -7 -20 -10 0 -10 -3 0 -15 10
-12 9 -16 -3 -21 -16 -6 -17 -28 -2 -41 4 -4 5 -3 2 3 -4 7 0 15 9 18 9 4 14
9 11 13 -11 10 34 64 46 56 8 -4 7 -1 -1 9 -10 13 -10 17 0 22 7 3 2 3 -11 0
-16 -4 -21 -3 -17 5 8 12 3 15 -7 5z"/>
<path d="M2034 1996 c1 -8 5 -18 8 -22 4 -3 5 1 4 10 -1 8 -5 18 -8 22 -4 3
-5 -1 -4 -10z"/>
<path d="M2060 2006 c0 -2 8 -10 18 -17 15 -13 16 -12 3 4 -13 16 -21 21 -21
13z"/>
<path d="M494 1925 c0 -13 3 -22 7 -19 8 4 6 30 -2 38 -3 3 -5 -5 -5 -19z"/>
<path d="M516 1895 c-3 -9 -10 -13 -16 -10 -5 3 -10 1 -10 -4 0 -6 4 -11 9
-11 12 0 35 29 29 36 -3 3 -8 -2 -12 -11z"/>
<path d="M2040 1898 c-12 -8 -12 -9 3 -4 19 6 22 -6 7 -34 -7 -13 -7 -21 0
-25 5 -3 10 1 10 9 0 10 6 13 15 10 8 -4 15 -1 15 6 0 6 -4 8 -10 5 -5 -3 -10
3 -10 14 0 25 -12 33 -30 19z"/>
<path d="M2116 1801 c-3 -4 6 -7 19 -7 14 0 22 2 19 5 -8 8 -34 10 -38 2z"/>
<path d="M476 1739 c5 -9 2 -11 -9 -6 -11 4 -15 1 -12 -14 2 -10 7 -24 11 -30
4 -8 -1 -9 -17 -4 -20 5 -19 3 6 -13 31 -20 53 -19 36 2 -7 9 -6 18 4 32 12
18 11 22 -7 33 -16 10 -18 10 -12 0z m8 -33 c-5 -14 -9 -15 -15 -5 -5 8 -3 17
4 21 15 9 19 4 11 -16z"/>
<path d="M415 1659 c-4 -5 -1 -8 7 -7 7 2 12 -3 11 -9 -2 -7 2 -13 7 -13 6 0
10 6 10 14 0 17 -27 29 -35 15z"/>
<path d="M462 1646 c4 -5 4 -14 -1 -20 -14 -18 -22 -48 -11 -41 6 3 10 13 10
21 0 8 5 12 10 9 6 -4 8 -11 5 -16 -4 -5 -2 -9 3 -9 21 0 20 29 -1 46 -12 11
-19 15 -15 10z"/>
<path d="M2148 1613 c7 -3 16 -2 19 1 4 3 -2 6 -13 5 -11 0 -14 -3 -6 -6z"/>
<path d="M413 1589 c-2 -23 3 -25 10 -4 4 8 3 16 -1 19 -4 3 -9 -4 -9 -15z"/>
<path d="M2150 1590 c-9 -6 -10 -10 -3 -10 6 0 15 5 18 10 8 12 4 12 -15 0z"/>
<path d="M2091 1546 c-9 -11 -8 -15 4 -20 9 -3 13 -10 10 -16 -3 -6 1 -13 10
-16 13 -5 14 -9 4 -15 -16 -10 -20 -37 -7 -46 7 -4 9 2 6 15 -4 15 -2 22 8 22
17 0 17 5 4 30 -6 11 -6 21 -1 24 7 5 19 -17 25 -46 0 -3 4 -9 8 -13 9 -9 5
16 -5 33 -5 6 -6 16 -3 20 3 5 -8 16 -23 25 -24 14 -31 15 -40 3z"/>
<path d="M2193 1545 c0 -8 4 -12 9 -9 5 3 6 10 3 15 -9 13 -12 11 -12 -6z"/>
<path d="M376 1493 c-6 -14 -5 -15 5 -6 7 7 10 15 7 18 -3 3 -9 -2 -12 -12z"/>
<path d="M2210 1461 c0 -6 4 -13 10 -16 6 -3 7 1 4 9 -7 18 -14 21 -14 7z"/>
<path d="M395 1449 c-4 -6 -5 -12 -2 -15 2 -3 7 2 10 11 7 17 1 20 -8 4z"/>
<path d="M417 1436 c-4 -10 -1 -13 8 -9 8 3 12 9 9 14 -7 12 -11 11 -17 -5z"/>
<path d="M366 1378 c3 -5 10 -6 15 -3 13 9 11 12 -6 12 -8 0 -12 -4 -9 -9z"/>
<path d="M2148 1383 c7 -3 16 -2 19 1 4 3 -2 6 -13 5 -11 0 -14 -3 -6 -6z"/>
<path d="M2120 1359 c14 -25 38 -35 52 -21 8 8 5 9 -11 5 -17 -4 -20 -2 -15
13 5 16 4 16 -5 4 -9 -13 -11 -13 -11 3 0 9 -5 17 -10 17 -7 0 -7 -7 0 -21z"/>
<path d="M437 1312 c-15 -16 -15 -18 1 -18 10 0 18 8 18 18 0 10 -1 18 -2 18
0 0 -8 -8 -17 -18z"/>
<path d="M2195 1320 c-3 -5 -1 -10 4 -10 6 0 11 5 11 10 0 6 -2 10 -4 10 -3 0
-8 -4 -11 -10z"/>
<path d="M2130 1285 c-7 -9 -10 -18 -6 -22 3 -3 6 -1 6 6 0 7 4 10 8 7 5 -3 9
1 9 9 0 19 -2 19 -17 0z"/>
<path d="M434 1250 c0 -9 6 -17 12 -17 7 0 10 7 6 15 -4 11 -1 13 9 7 8 -5 11
-4 6 0 -14 16 -33 13 -33 -5z"/>
<path d="M2065 1260 c-6 -10 9 -27 25 -27 8 0 24 -4 35 -7 18 -7 18 -6 -1 6
-12 7 -19 18 -17 25 4 12 -35 14 -42 3z m35 -6 c0 -8 -19 -13 -24 -6 -3 5 1 9
9 9 8 0 15 -2 15 -3z"/>
<path d="M2170 1260 c0 -5 5 -10 11 -10 5 0 7 5 4 10 -3 6 -8 10 -11 10 -2 0
-4 -4 -4 -10z"/>
<path d="M2175 1231 c-3 -5 -2 -12 3 -15 5 -3 9 1 9 9 0 17 -3 19 -12 6z"/>
<path d="M459 1208 c7 -10 19 -14 28 -11 12 5 14 3 8 -7 -5 -9 -4 -11 4 -6 15
9 3 29 -14 22 -7 -2 -19 1 -26 7 -11 10 -11 9 0 -5z"/>
<path d="M2038 1169 c-41 -21 -45 -28 -26 -47 15 -15 28 -16 28 -2 0 6 -5 9
-11 8 -6 -2 -14 4 -16 12 -3 9 -1 11 4 5 15 -19 29 -14 47 16 9 16 16 29 14
29 -2 -1 -20 -10 -40 -21z m17 -9 c-3 -5 -12 -10 -18 -10 -7 0 -6 4 3 10 19
12 23 12 15 0z"/>
<path d="M2086 1157 c3 -10 9 -15 12 -12 3 3 0 11 -7 18 -10 9 -11 8 -5 -6z"/>
<path d="M2170 1166 c0 -2 7 -7 16 -10 8 -3 12 -2 9 4 -6 10 -25 14 -25 6z"/>
<path d="M514 1138 c-3 -5 -3 -12 0 -15 3 -4 6 -1 6 5 0 6 7 9 15 6 8 -4 15
-10 15 -16 0 -5 -5 -6 -12 -2 -7 5 -8 3 -3 -6 6 -10 4 -12 -8 -7 -10 3 -17 2
-17 -3 0 -13 27 -13 35 1 8 11 45 -17 45 -34 0 -6 -10 -2 -22 9 -12 10 -18 14
-15 7 4 -6 1 -14 -5 -17 -8 -3 -7 -5 3 -3 19 2 93 -69 80 -77 -5 -4 -12 0 -14
6 -4 10 -6 10 -6 0 -1 -7 -5 -11 -9 -8 -4 2 -9 -5 -9 -17 -2 -20 -1 -20 8 -4
8 14 14 16 25 6 8 -6 14 -8 14 -5 0 4 8 0 17 -9 16 -16 17 -16 29 0 11 14 11
23 -1 45 -8 15 -11 31 -7 35 4 4 -3 3 -15 -4 -15 -7 -24 -8 -28 -1 -4 6 -10 8
-15 5 -5 -3 -11 -1 -15 5 -3 5 1 10 11 10 13 0 14 3 4 15 -7 8 -9 15 -5 15 3
0 -8 14 -25 32 -32 32 -66 43 -76 26z m89 -57 c-4 -7 -34 21 -45 43 -7 14 -2
11 18 -9 16 -16 28 -32 27 -34z m47 -66 c0 4 7 2 15 -5 8 -7 12 -16 9 -21 -3
-5 1 -9 8 -10 10 0 10 -2 0 -6 -6 -2 -9 -10 -5 -16 3 -7 -3 -4 -14 6 -11 9
-23 15 -26 12 -4 -3 -3 0 3 7 7 8 4 18 -8 32 -16 20 -16 20 1 7 9 -7 17 -10
17 -6z"/>
<path d="M654 996 c1 -8 5 -18 8 -22 4 -3 5 1 4 10 -1 8 -5 18 -8 22 -4 3 -5
-1 -4 -10z"/>
<path d="M2061 1131 c-6 -10 -7 -21 -4 -25 6 -6 -12 -10 -30 -7 -5 1 -6 -3 -2
-9 4 -7 13 -7 26 1 12 6 18 13 15 16 -3 3 -1 14 5 24 5 11 7 19 5 19 -3 0 -10
-8 -15 -19z"/>
<path d="M2120 1140 c-9 -6 -10 -10 -3 -10 6 0 15 5 18 10 8 12 4 12 -15 0z"/>
<path d="M2080 1126 c0 -2 8 -10 18 -17 15 -13 16 -12 3 4 -13 16 -21 21 -21
13z"/>
<path d="M450 1099 c0 -5 5 -7 10 -4 6 3 10 8 10 11 0 2 -4 4 -10 4 -5 0 -10
-5 -10 -11z"/>
<path d="M1973 1058 c-11 -19 -12 -38 -2 -38 5 0 9 3 10 8 0 4 2 15 4 25 4 20
-1 22 -12 5z"/>
<path d="M2076 1058 c3 -5 10 -6 15 -3 13 9 11 12 -6 12 -8 0 -12 -4 -9 -9z"/>
<path d="M520 1045 c0 -2 6 -8 13 -14 10 -8 14 -7 14 2 0 8 -6 14 -14 14 -7 0
-13 -1 -13 -2z"/>
<path d="M2053 1035 c0 -8 4 -12 9 -9 4 3 8 9 8 15 0 5 -4 9 -8 9 -5 0 -9 -7
-9 -15z"/>
<path d="M2076 1013 c-6 -14 -5 -15 5 -6 7 7 10 15 7 18 -3 3 -9 -2 -12 -12z"/>
<path d="M550 1006 c0 -2 7 -7 16 -10 8 -3 12 -2 9 4 -6 10 -25 14 -25 6z"/>
<path d="M1920 1000 c13 -9 13 -10 0 -10 -12 0 -12 -2 -1 -9 9 -6 10 -11 2
-15 -17 -11 -5 -23 21 -22 23 1 34 31 11 31 -6 0 -15 3 -19 8 -4 4 -2 7 4 7
22 0 12 16 -10 17 -18 2 -20 0 -8 -7z m40 -41 c0 -4 -9 -7 -19 -6 -11 0 -18 4
-16 7 6 9 35 8 35 -1z"/>
<path d="M2035 1002 c3 -3 -1 -12 -7 -21 -8 -10 -4 -9 10 3 26 23 26 23 7 23
-8 0 -13 -3 -10 -5z"/>
<path d="M547 979 c7 -7 15 -10 18 -7 3 3 -2 9 -12 12 -14 6 -15 5 -6 -5z"/>
<path d="M2035 960 c-3 -5 -1 -10 4 -10 6 0 11 5 11 10 0 6 -2 10 -4 10 -3 0
-8 -4 -11 -10z"/>
<path d="M635 930 c-3 -6 1 -7 9 -4 18 7 21 14 7 14 -6 0 -13 -4 -16 -10z"/>
<path d="M1976 918 c3 -5 10 -6 15 -3 13 9 11 12 -6 12 -8 0 -12 -4 -9 -9z"/>
<path d="M1839 693 c-1 -5 -1 -12 0 -17 1 -4 -2 -13 -7 -20 -5 -6 -8 -19 -6
-29 1 -13 -2 -17 -12 -13 -20 8 -17 -7 6 -26 12 -11 17 -26 15 -40 -4 -21 -3
-21 9 -6 7 10 15 16 18 13 2 -3 4 9 4 25 0 17 -4 29 -10 27 -6 -2 -10 -13 -8
-23 2 -15 1 -16 -7 -5 -14 21 8 48 37 47 14 -1 27 5 29 12 3 6 0 12 -7 12 -6
0 -9 4 -5 9 3 5 0 13 -6 17 -7 4 -9 3 -5 -4 4 -7 -1 -10 -14 -9 -18 1 -24 10
-21 30 0 4 -1 7 -4 7 -3 0 -6 -3 -6 -7z m53 -51 c5 -5 -1 -8 -14 -7 -13 1 -28
-2 -35 -7 -8 -6 -10 -4 -8 9 2 10 4 19 4 20 2 5 45 -7 53 -15z"/>
<path d="M790 639 c0 -5 5 -7 10 -4 6 3 10 8 10 11 0 2 -4 4 -10 4 -5 0 -10
-5 -10 -11z"/>
<path d="M680 615 c-7 -8 -11 -16 -9 -16 22 -7 59 -6 59 2 0 5 1 12 3 16 5 13
-42 12 -53 -2z"/>
<path d="M710 541 c0 -6 3 -11 8 -12 4 0 15 -2 24 -4 23 -4 33 11 13 19 -8 3
-15 0 -15 -6 0 -7 -5 -6 -15 2 -10 9 -15 9 -15 1z"/>
<path d="M1900 530 c8 -5 20 -10 25 -10 6 0 3 5 -5 10 -8 5 -19 10 -25 10 -5
0 -3 -5 5 -10z"/>
<path d="M2044 496 c-10 -22 -10 -24 6 -14 10 7 16 18 13 25 -7 17 -6 17 -19
-11z"/>
<path d="M870 479 c0 -20 23 -31 48 -22 14 6 15 4 5 -8 -8 -9 -9 -20 -3 -29 9
-13 10 -13 11 0 1 8 1 19 0 24 -1 5 5 6 14 2 9 -3 20 -6 23 -6 4 0 0 -5 -8
-11 -13 -9 -12 -10 2 -5 10 3 20 1 23 -4 4 -6 1 -10 -6 -10 -23 0 0 -13 30
-16 17 -2 33 2 37 8 5 7 2 9 -9 5 -9 -3 -19 -1 -23 5 -4 6 -3 8 2 5 6 -3 16
-1 24 4 13 9 13 10 0 6 -8 -2 -23 2 -32 11 -12 10 -18 11 -18 3 0 -7 -16 0
-35 15 -28 21 -38 24 -49 15 -11 -10 -17 -8 -25 6 -9 16 -10 16 -11 2z"/>
<path d="M1726 474 c-5 -12 -9 -14 -20 -5 -10 8 -17 6 -30 -8 -10 -11 -23 -18
-30 -15 -7 3 -18 -7 -24 -21 -15 -32 -15 -35 -1 -35 5 0 7 5 4 10 -3 6 3 10
13 10 11 0 25 7 32 15 9 11 17 12 30 5 13 -7 21 -6 26 2 4 6 3 8 -3 5 -6 -4
-13 0 -16 8 -4 8 -1 12 6 9 7 -2 18 5 25 16 7 11 8 20 3 20 -5 0 -12 -7 -15
-16z m-29 -19 c0 -8 -4 -12 -8 -10 -3 3 -12 -2 -19 -10 -14 -17 -45 -21 -35
-5 4 6 10 8 14 5 5 -2 16 4 26 15 22 24 22 24 22 5z"/>
<path d="M1853 463 c4 -3 -1 -16 -10 -27 -18 -21 -18 -21 4 -2 20 16 23 36 6
36 -4 0 -3 -3 0 -7z"/>
<path d="M1895 460 c-3 -5 -1 -10 4 -10 6 0 11 5 11 10 0 6 -2 10 -4 10 -3 0
-8 -4 -11 -10z"/>
<path d="M770 454 c0 -2 13 -9 29 -17 28 -14 29 -14 19 2 -8 13 -48 25 -48 15z"/>
<path d="M1765 449 c-4 -6 -5 -12 -2 -15 2 -3 7 2 10 11 7 17 1 20 -8 4z"/>
<path d="M1950 439 c0 -5 5 -7 10 -4 6 3 10 8 10 11 0 2 -4 4 -10 4 -5 0 -10
-5 -10 -11z"/>
<path d="M736 427 c3 -10 9 -15 12 -12 3 3 0 11 -7 18 -10 9 -11 8 -5 -6z"/>
<path d="M1563 420 c-19 -11 -34 -15 -40 -9 -6 6 -20 2 -36 -11 -24 -19 -28
-19 -33 -6 -3 9 -11 16 -17 16 -5 0 -3 -8 5 -17 9 -10 13 -23 11 -30 -2 -6 1
-14 6 -18 7 -4 8 1 4 12 -3 10 -3 15 2 11 4 -4 15 -2 23 5 13 10 14 9 3 -10
-10 -19 -9 -22 4 -17 9 4 13 9 11 12 -7 6 24 31 39 32 5 0 4 -5 -2 -11 -6 -6
-9 -18 -6 -27 4 -10 2 -13 -5 -8 -16 10 -25 -11 -12 -31 9 -16 10 -15 5 5 -5
16 -3 22 7 20 7 -2 12 5 11 15 0 10 9 23 21 28 25 12 49 46 38 53 -5 3 -22 -3
-39 -14z m22 -10 c-18 -20 -35 -26 -35 -12 0 4 10 12 23 18 32 16 32 16 12 -6z
m-61 -21 c-3 -5 -10 -7 -15 -3 -5 3 -16 2 -22 -3 -7 -4 -4 0 6 9 19 18 43 15
31 -3z"/>
<path d="M695 420 c-3 -5 -1 -10 4 -10 6 0 11 5 11 10 0 6 -2 10 -4 10 -3 0
-8 -4 -11 -10z"/>
<path d="M776 418 c3 -5 10 -6 15 -3 13 9 11 12 -6 12 -8 0 -12 -4 -9 -9z"/>
<path d="M1790 418 c0 -4 4 -8 9 -8 6 0 12 4 15 8 3 5 -1 9 -9 9 -8 0 -15 -4
-15 -9z"/>
<path d="M890 410 c-11 -7 -11 -10 -2 -10 7 0 11 -4 7 -9 -3 -5 -2 -12 3 -15
4 -2 8 6 8 20 0 13 0 24 0 24 -1 0 -8 -5 -16 -10z"/>
<path d="M1675 411 c-3 -5 -2 -12 3 -15 5 -3 9 1 9 9 0 17 -3 19 -12 6z"/>
<path d="M1735 411 c-3 -5 -2 -12 3 -15 5 -3 9 1 9 9 0 17 -3 19 -12 6z"/>
<path d="M935 401 c-3 -5 0 -13 6 -17 7 -4 9 -3 5 4 -3 5 0 13 6 15 9 4 10 6
1 6 -6 1 -14 -3 -18 -8z"/>
<path d="M1153 395 c0 -8 4 -12 9 -9 4 3 8 9 8 15 0 5 -4 9 -8 9 -5 0 -9 -7
-9 -15z"/>
<path d="M975 383 c3 -3 -3 -16 -12 -27 -14 -15 -14 -18 -2 -8 9 6 18 9 22 6
3 -3 4 1 3 10 -1 8 -5 18 -9 21 -4 3 -5 2 -2 -2z"/>
<path d="M1660 386 c0 -2 8 -10 18 -17 15 -13 16 -12 3 4 -13 16 -21 21 -21
13z"/>
<path d="M1010 366 c0 -8 4 -17 9 -20 5 -4 7 3 4 14 -6 23 -13 26 -13 6z"/>
<path d="M1587 367 c-3 -8 0 -14 7 -14 7 0 13 6 13 14 0 7 -4 13 -8 13 -4 0
-9 -6 -12 -13z"/>
<path d="M926 358 c3 -5 10 -6 15 -3 13 9 11 12 -6 12 -8 0 -12 -4 -9 -9z"/>
<path d="M1553 316 c0 -8 6 -12 14 -9 7 3 10 9 7 14 -8 14 -21 11 -21 -5z"/>
<path d="M1026 299 c2 -4 13 -7 24 -6 23 2 17 10 -10 12 -10 1 -17 -2 -14 -6z"/>
<path d="M1081 284 c0 -11 3 -14 6 -6 3 7 2 16 -1 19 -3 4 -6 -2 -5 -13z"/>
<path d="M1460 280 c-6 -11 -8 -20 -4 -20 3 0 0 -8 -7 -17 -11 -13 -8 -13 13
2 28 21 35 39 19 50 -6 3 -15 -4 -21 -15z m11 -13 c-10 -9 -11 -8 -5 6 3 10 9
15 12 12 3 -3 0 -11 -7 -18z"/>
<path d="M1569 283 c-13 -16 -12 -17 4 -4 16 13 21 21 13 21 -2 0 -10 -8 -17
-17z"/>
<path d="M987 279 c7 -7 15 -10 18 -7 3 3 -2 9 -12 12 -14 6 -15 5 -6 -5z"/>
<path d="M1500 279 c0 -5 5 -7 10 -4 6 3 10 8 10 11 0 2 -4 4 -10 4 -5 0 -10
-5 -10 -11z"/>
<path d="M1530 280 c0 -5 5 -10 10 -10 6 0 10 5 10 10 0 6 -4 10 -10 10 -5 0
-10 -4 -10 -10z"/>
<path d="M1055 249 c-4 -6 -5 -12 -2 -15 2 -3 7 2 10 11 7 17 1 20 -8 4z"/>
<path d="M1508 253 c7 -3 16 -2 19 1 4 3 -2 6 -13 5 -11 0 -14 -3 -6 -6z"/>
<path d="M1145 232 c-17 -12 -16 -32 2 -25 12 5 14 3 8 -7 -5 -9 -4 -11 4 -6
8 6 9 12 2 20 -6 7 -8 16 -4 19 9 9 0 9 -12 -1z"/>
</g>
</svg>
